<svg xmlns="http://www.w3.org/2000/svg" xmlns:xlink="http://www.w3.org/1999/xlink" width="500" zoomAndPan="magnify" viewBox="0 0 375 374.999991" height="500" preserveAspectRatio="xMidYMid meet" version="1.2"><defs><clipPath id="abbb960a8d"><path d="M 99 220 L 282.882812 220 L 282.882812 285 L 99 285 Z M 99 220 "/></clipPath></defs><g id="e48a313b69"><path style=" stroke:none;fill-rule:nonzero;fill:#ffffff;fill-opacity:1;" d="M 196.402344 301.40625 C 199.675781 300.433594 202.863281 299.3125 205.96875 298.066406 C 152.273438 308.691406 98.332031 276.871094 82.441406 223.351562 C 66.546875 169.835938 94.378906 113.730469 145.167969 93.328125 C 141.886719 93.976562 138.605469 94.777344 135.332031 95.75 C 78.539062 112.613281 46.175781 172.324219 63.039062 229.113281 C 79.902344 285.902344 139.613281 318.269531 196.402344 301.40625 "/><path style=" stroke:none;fill-rule:nonzero;fill:#289db9;fill-opacity:1;" d="M 63.496094 274.179688 C 66.34375 276.414062 69.269531 278.480469 72.25 280.398438 C 30.136719 240.507812 24.550781 174.367188 61.0625 127.804688 C 97.570312 81.242188 163.132812 70.886719 211.921875 102.273438 C 209.34375 99.832031 206.644531 97.484375 203.796875 95.253906 C 154.386719 56.511719 82.925781 65.160156 44.183594 114.566406 C 5.441406 163.976562 14.089844 235.4375 63.496094 274.179688 "/><g clip-rule="nonzero" clip-path="url(#abbb960a8d)"><path style=" stroke:none;fill-rule:nonzero;fill:#289db9;fill-opacity:1;" d="M 169.214844 268.988281 C 139.917969 261.109375 115.816406 243.542969 99.425781 220.667969 C 112.347656 249.195312 137.460938 271.929688 170.070312 280.695312 C 212.660156 292.144531 256.144531 276.558594 282.3125 244.449219 C 251.882812 269.523438 210.191406 280 169.214844 268.988281 "/></g><g style="fill:#ffffff;fill-opacity:1;"><g transform="translate(82.671484, 209.139313)"><path style="stroke:none" d="M 0.671875 0 L 8.78125 -46.703125 L 22.1875 -46.671875 C 25.332031 -46.609375 28.160156 -45.894531 30.671875 -44.53125 C 33.191406 -43.175781 35.226562 -41.222656 36.78125 -38.671875 C 38.34375 -36.128906 39.285156 -33.265625 39.609375 -30.078125 C 39.785156 -28.222656 39.765625 -26.320312 39.546875 -24.375 L 39.328125 -22.671875 C 38.378906 -15.828125 35.6875 -10.335938 31.25 -6.203125 C 26.8125 -2.066406 21.429688 0 15.109375 0 Z M 16.84375 -38.90625 L 11.421875 -7.734375 L 15.328125 -7.703125 C 19.648438 -7.703125 23.117188 -9.28125 25.734375 -12.4375 C 28.359375 -15.601562 29.863281 -20.382812 30.25 -26.78125 L 30.3125 -27.8125 C 30.375 -31.332031 29.695312 -34.035156 28.28125 -35.921875 C 26.875 -37.804688 24.769531 -38.789062 21.96875 -38.875 Z M 16.84375 -38.90625 "/></g></g><g style="fill:#ffffff;fill-opacity:1;"><g transform="translate(121.302685, 209.139313)"><path style="stroke:none" d="M 31.5 -20.234375 L 13.59375 -20.234375 L 11.421875 -7.734375 L 32.453125 -7.734375 L 31.109375 0 L 0.671875 0 L 8.78125 -46.703125 L 39.15625 -46.703125 L 37.78125 -38.90625 L 16.84375 -38.90625 L 14.875 -27.78125 L 32.84375 -27.78125 Z M 31.5 -20.234375 "/></g></g><g style="fill:#ffffff;fill-opacity:1;"><g transform="translate(154.354317, 209.139313)"><path style="stroke:none" d="M 38.75 -15.59375 C 38.382812 -12.363281 37.28125 -9.5 35.4375 -7 C 33.601562 -4.507812 31.207031 -2.597656 28.25 -1.265625 C 25.300781 0.0664062 22.117188 0.703125 18.703125 0.640625 C 15.617188 0.578125 12.929688 -0.128906 10.640625 -1.484375 C 8.359375 -2.847656 6.554688 -4.816406 5.234375 -7.390625 C 3.921875 -9.972656 3.179688 -12.941406 3.015625 -16.296875 C 2.867188 -18.921875 3.140625 -22.191406 3.828125 -26.109375 C 4.523438 -30.023438 5.765625 -33.5 7.546875 -36.53125 C 9.335938 -39.570312 11.460938 -41.976562 13.921875 -43.75 C 17.378906 -46.226562 21.332031 -47.425781 25.78125 -47.34375 C 30.613281 -47.257812 34.445312 -45.765625 37.28125 -42.859375 C 40.113281 -39.960938 41.671875 -35.941406 41.953125 -30.796875 L 32.59375 -30.828125 C 32.59375 -33.773438 32.003906 -35.929688 30.828125 -37.296875 C 29.648438 -38.671875 27.820312 -39.398438 25.34375 -39.484375 C 22.132812 -39.585938 19.5 -38.441406 17.4375 -36.046875 C 15.375 -33.648438 13.988281 -30.15625 13.28125 -25.5625 C 12.59375 -21.09375 12.289062 -17.75 12.375 -15.53125 C 12.488281 -12.707031 13.117188 -10.625 14.265625 -9.28125 C 15.421875 -7.945312 17.035156 -7.25 19.109375 -7.1875 C 21.972656 -7.082031 24.265625 -7.757812 25.984375 -9.21875 C 27.710938 -10.6875 28.851562 -12.789062 29.40625 -15.53125 Z M 38.75 -15.59375 "/></g></g><g style="fill:#ffffff;fill-opacity:1;"><g transform="translate(193.274116, 209.139313)"><path style="stroke:none" d="M 10.6875 0 L 1.28125 0 L 9.359375 -46.703125 L 18.765625 -46.703125 Z M 10.6875 0 "/></g></g><g style="fill:#289db9;fill-opacity:1;"><g transform="translate(206.804888, 209.140955)"><path style="stroke:none" d="M 0.671875 0 L 8.78125 -46.703125 L 23.34375 -46.671875 C 28.757812 -46.648438 32.820312 -45.546875 35.53125 -43.359375 C 38.25 -41.179688 39.476562 -38.113281 39.21875 -34.15625 C 38.925781 -29.4375 36.203125 -25.984375 31.046875 -23.796875 C 32.910156 -23.160156 34.351562 -21.957031 35.375 -20.1875 C 36.40625 -18.425781 36.84375 -16.347656 36.6875 -13.953125 C 36.394531 -9.546875 34.671875 -6.117188 31.515625 -3.671875 C 28.359375 -1.222656 24.054688 0 18.609375 0 Z M 13.625 -20.328125 L 11.421875 -7.734375 L 18.828125 -7.703125 C 21.140625 -7.703125 23.070312 -8.269531 24.625 -9.40625 C 26.1875 -10.550781 27.117188 -12.097656 27.421875 -14.046875 C 27.722656 -15.972656 27.460938 -17.472656 26.640625 -18.546875 C 25.816406 -19.628906 24.429688 -20.210938 22.484375 -20.296875 Z M 14.78125 -27.140625 L 21.171875 -27.078125 C 23.546875 -27.117188 25.484375 -27.671875 26.984375 -28.734375 C 28.492188 -29.804688 29.398438 -31.296875 29.703125 -33.203125 C 30.234375 -36.960938 28.253906 -38.851562 23.765625 -38.875 L 16.84375 -38.90625 Z M 14.78125 -27.140625 "/></g></g><g style="fill:#289db9;fill-opacity:1;"><g transform="translate(244.69856, 209.140955)"><path style="stroke:none" d="M 31.5 -20.234375 L 13.59375 -20.234375 L 11.421875 -7.734375 L 32.453125 -7.734375 L 31.109375 0 L 0.671875 0 L 8.78125 -46.703125 L 39.15625 -46.703125 L 37.78125 -38.90625 L 16.84375 -38.90625 L 14.875 -27.78125 L 32.84375 -27.78125 Z M 31.5 -20.234375 "/></g></g><g style="fill:#289db9;fill-opacity:1;"><g transform="translate(277.750192, 209.140955)"><path style="stroke:none" d="M 11.421875 -7.734375 L 31.234375 -7.734375 L 29.890625 0 L 0.671875 0 L 8.78125 -46.703125 L 18.1875 -46.703125 Z M 11.421875 -7.734375 "/></g></g><g style="fill:#289db9;fill-opacity:1;"><g transform="translate(309.487098, 209.140955)"><path style="stroke:none" d="M 10.6875 0 L 1.28125 0 L 9.359375 -46.703125 L 18.765625 -46.703125 Z M 10.6875 0 "/></g></g><g style="fill:#289db9;fill-opacity:1;"><g transform="translate(325.286961, 209.140955)"><path style="stroke:none" d="M 19.4375 0.640625 C 16.332031 0.578125 13.597656 -0.148438 11.234375 -1.546875 C 8.878906 -2.953125 7.007812 -4.972656 5.625 -7.609375 C 4.25 -10.253906 3.453125 -13.285156 3.234375 -16.703125 C 3.003906 -20.210938 3.378906 -23.957031 4.359375 -27.9375 C 5.347656 -31.914062 6.929688 -35.410156 9.109375 -38.421875 C 11.285156 -41.441406 13.84375 -43.695312 16.78125 -45.1875 C 19.726562 -46.6875 22.910156 -47.40625 26.328125 -47.34375 C 29.472656 -47.28125 32.222656 -46.535156 34.578125 -45.109375 C 36.929688 -43.691406 38.78125 -41.648438 40.125 -38.984375 C 41.46875 -36.328125 42.238281 -33.304688 42.4375 -29.921875 C 42.644531 -26.160156 42.234375 -22.289062 41.203125 -18.3125 C 40.179688 -14.332031 38.59375 -10.890625 36.4375 -7.984375 C 34.28125 -5.078125 31.75 -2.894531 28.84375 -1.4375 C 25.945312 0.0078125 22.8125 0.703125 19.4375 0.640625 Z M 32.75 -24.640625 L 33 -27.6875 C 33.21875 -31.488281 32.710938 -34.375 31.484375 -36.34375 C 30.253906 -38.3125 28.390625 -39.335938 25.890625 -39.421875 C 21.972656 -39.546875 18.863281 -37.8125 16.5625 -34.21875 C 14.269531 -30.625 12.972656 -25.597656 12.671875 -19.140625 C 12.453125 -15.359375 12.953125 -12.445312 14.171875 -10.40625 C 15.390625 -8.363281 17.285156 -7.300781 19.859375 -7.21875 C 23.210938 -7.0625 25.988281 -8.367188 28.1875 -11.140625 C 30.394531 -13.910156 31.835938 -17.832031 32.515625 -22.90625 Z M 32.75 -24.640625 "/></g></g><g style="fill:#289db9;fill-opacity:1;"><g transform="translate(135.01482, 235.422307)"><path style="stroke:none" d="M 7.296875 0.265625 C 6.054688 0.265625 4.9375 0.0351562 3.9375 -0.421875 C 2.945312 -0.878906 2.160156 -1.570312 1.578125 -2.5 C 1.003906 -3.4375 0.71875 -4.609375 0.71875 -6.015625 C 0.71875 -7.359375 0.921875 -8.597656 1.328125 -9.734375 C 1.742188 -10.878906 2.328125 -11.875 3.078125 -12.71875 C 3.835938 -13.5625 4.753906 -14.222656 5.828125 -14.703125 C 6.910156 -15.179688 8.117188 -15.421875 9.453125 -15.421875 C 10.242188 -15.421875 11.023438 -15.3125 11.796875 -15.09375 C 12.578125 -14.875 13.269531 -14.503906 13.875 -13.984375 C 14.476562 -13.472656 14.925781 -12.78125 15.21875 -11.90625 L 11.90625 -10.796875 C 11.632812 -11.429688 11.25 -11.867188 10.75 -12.109375 C 10.257812 -12.347656 9.707031 -12.46875 9.09375 -12.46875 C 8.382812 -12.46875 7.75 -12.296875 7.1875 -11.953125 C 6.625 -11.617188 6.144531 -11.160156 5.75 -10.578125 C 5.363281 -10.003906 5.0625 -9.359375 4.84375 -8.640625 C 4.632812 -7.929688 4.53125 -7.191406 4.53125 -6.421875 C 4.53125 -5.191406 4.820312 -4.269531 5.40625 -3.65625 C 5.988281 -3.050781 6.738281 -2.738281 7.65625 -2.71875 C 8.238281 -2.71875 8.800781 -2.835938 9.34375 -3.078125 C 9.882812 -3.328125 10.394531 -3.765625 10.875 -4.390625 L 13.96875 -3.203125 C 13.269531 -2.128906 12.367188 -1.28125 11.265625 -0.65625 C 10.160156 -0.0390625 8.835938 0.265625 7.296875 0.265625 Z M 7.296875 0.265625 "/></g></g><g style="fill:#289db9;fill-opacity:1;"><g transform="translate(150.278252, 235.422307)"><path style="stroke:none" d="M -0.296875 0 L 0.296875 -2.8125 L 2.375 -2.8125 L 4.421875 -12.328125 L 2.328125 -12.328125 L 2.921875 -15.140625 L 10.75 -15.140625 L 10.140625 -12.328125 L 8.046875 -12.328125 L 6.046875 -2.8125 L 8.109375 -2.8125 L 7.5 0 Z M -0.296875 0 "/></g></g><g style="fill:#289db9;fill-opacity:1;"><g transform="translate(160.688227, 235.422307)"><path style="stroke:none" d="M 6.9375 0.265625 C 5.289062 0.265625 3.875 -0.0703125 2.6875 -0.75 C 1.507812 -1.425781 0.691406 -2.363281 0.234375 -3.5625 L 3.734375 -4.734375 C 3.859375 -4.234375 4.09375 -3.820312 4.4375 -3.5 C 4.789062 -3.1875 5.203125 -2.953125 5.671875 -2.796875 C 6.148438 -2.648438 6.625 -2.578125 7.09375 -2.578125 C 7.757812 -2.578125 8.34375 -2.707031 8.84375 -2.96875 C 9.351562 -3.226562 9.609375 -3.59375 9.609375 -4.0625 C 9.609375 -4.4375 9.460938 -4.75 9.171875 -5 C 8.878906 -5.257812 8.484375 -5.476562 7.984375 -5.65625 C 7.492188 -5.84375 6.953125 -6.023438 6.359375 -6.203125 C 5.773438 -6.390625 5.191406 -6.597656 4.609375 -6.828125 C 4.023438 -7.054688 3.488281 -7.335938 3 -7.671875 C 2.507812 -8.015625 2.117188 -8.4375 1.828125 -8.9375 C 1.535156 -9.4375 1.390625 -10.046875 1.390625 -10.765625 C 1.390625 -11.585938 1.566406 -12.285156 1.921875 -12.859375 C 2.273438 -13.441406 2.75 -13.921875 3.34375 -14.296875 C 3.9375 -14.679688 4.609375 -14.960938 5.359375 -15.140625 C 6.117188 -15.328125 6.910156 -15.421875 7.734375 -15.421875 C 8.484375 -15.421875 9.234375 -15.316406 9.984375 -15.109375 C 10.742188 -14.910156 11.453125 -14.566406 12.109375 -14.078125 C 12.773438 -13.597656 13.316406 -12.945312 13.734375 -12.125 L 10.21875 -10.953125 C 10.03125 -11.484375 9.660156 -11.875 9.109375 -12.125 C 8.566406 -12.375 8.015625 -12.5 7.453125 -12.5 C 6.679688 -12.5 6.09375 -12.375 5.6875 -12.125 C 5.28125 -11.875 5.078125 -11.550781 5.078125 -11.15625 C 5.078125 -10.75 5.222656 -10.421875 5.515625 -10.171875 C 5.816406 -9.921875 6.210938 -9.703125 6.703125 -9.515625 C 7.191406 -9.335938 7.726562 -9.171875 8.3125 -9.015625 C 8.90625 -8.859375 9.492188 -8.675781 10.078125 -8.46875 C 10.671875 -8.257812 11.210938 -7.992188 11.703125 -7.671875 C 12.203125 -7.359375 12.597656 -6.960938 12.890625 -6.484375 C 13.179688 -6.003906 13.328125 -5.398438 13.328125 -4.671875 C 13.328125 -3.578125 13.023438 -2.664062 12.421875 -1.9375 C 11.816406 -1.207031 11.023438 -0.65625 10.046875 -0.28125 C 9.078125 0.0820312 8.039062 0.265625 6.9375 0.265625 Z M 6.9375 0.265625 "/></g></g><g style="fill:#289db9;fill-opacity:1;"><g transform="translate(175.248596, 235.422307)"><path style="stroke:none" d=""/></g></g><g style="fill:#289db9;fill-opacity:1;"><g transform="translate(182.506099, 235.422307)"><path style="stroke:none" d="M 0.234375 -4.171875 L 0.859375 -7.09375 L 8.25 -7.09375 L 7.625 -4.171875 Z M 0.234375 -4.171875 "/></g></g><g style="fill:#ffffff;fill-opacity:1;"><g transform="translate(200.512681, 234.870473)"><path style="stroke:none" d="M 6.03125 0.265625 C 4.664062 0.265625 3.585938 0.0703125 2.796875 -0.3125 C 2.003906 -0.707031 1.4375 -1.242188 1.09375 -1.921875 C 0.757812 -2.609375 0.59375 -3.378906 0.59375 -4.234375 C 0.59375 -4.617188 0.617188 -5.003906 0.671875 -5.390625 C 0.722656 -5.785156 0.796875 -6.195312 0.890625 -6.625 L 2.71875 -15.140625 L 6.375 -15.140625 L 4.484375 -6.328125 C 4.421875 -6.003906 4.367188 -5.703125 4.328125 -5.421875 C 4.285156 -5.148438 4.265625 -4.882812 4.265625 -4.625 C 4.265625 -4.019531 4.429688 -3.539062 4.765625 -3.1875 C 5.109375 -2.832031 5.742188 -2.65625 6.671875 -2.65625 C 7.492188 -2.65625 8.144531 -2.804688 8.625 -3.109375 C 9.101562 -3.410156 9.472656 -3.835938 9.734375 -4.390625 C 10.003906 -4.941406 10.210938 -5.585938 10.359375 -6.328125 L 12.25 -15.140625 L 15.890625 -15.140625 L 14.078125 -6.625 C 13.773438 -5.195312 13.394531 -4.035156 12.9375 -3.140625 C 12.476562 -2.242188 11.925781 -1.546875 11.28125 -1.046875 C 10.632812 -0.546875 9.875 -0.203125 9 -0.015625 C 8.132812 0.171875 7.144531 0.265625 6.03125 0.265625 Z M 6.03125 0.265625 "/></g></g><g style="fill:#ffffff;fill-opacity:1;"><g transform="translate(215.912201, 234.870473)"><path style="stroke:none" d="M -0.515625 0 L 2.703125 -15.140625 L 7.203125 -15.140625 L 10.84375 -4.15625 L 13.1875 -15.140625 L 16.703125 -15.140625 L 13.484375 0 L 8.984375 0 L 5.34375 -11 L 3.015625 0 Z M -0.515625 0 "/></g></g><g style="fill:#ffffff;fill-opacity:1;"><g transform="translate(232.128179, 234.870473)"><path style="stroke:none" d="M -0.515625 0 L 2.703125 -15.140625 L 6.328125 -15.140625 L 3.8125 -3.15625 L 11.0625 -3.15625 L 10.390625 0 Z M -0.515625 0 "/></g></g></g></svg>