<svg xmlns="http://www.w3.org/2000/svg" xmlns:xlink="http://www.w3.org/1999/xlink" width="500" zoomAndPan="magnify" viewBox="0 0 375 374.999991" height="500" preserveAspectRatio="xMidYMid meet" version="1.2"><defs><clipPath id="2be6f959ba"><path d="M 98 221 L 283.773438 221 L 283.773438 286 L 98 286 Z M 98 221 "/></clipPath></defs><g id="b3b0feb2f5"><path style=" stroke:none;fill-rule:nonzero;fill:#182b5c;fill-opacity:1;" d="M 196.480469 302.695312 C 199.792969 301.710938 203.015625 300.578125 206.15625 299.316406 C 151.847656 310.0625 97.289062 277.878906 81.210938 223.746094 C 65.136719 169.617188 93.289062 112.867188 144.660156 92.230469 C 141.339844 92.886719 138.019531 93.699219 134.710938 94.679688 C 77.269531 111.738281 44.53125 172.132812 61.589844 229.574219 C 78.648438 287.015625 139.039062 319.753906 196.480469 302.695312 "/><path style=" stroke:none;fill-rule:nonzero;fill:#289db9;fill-opacity:1;" d="M 62.050781 275.15625 C 64.933594 277.414062 67.890625 279.507812 70.90625 281.449219 C 28.308594 241.097656 22.660156 174.199219 59.589844 127.101562 C 96.515625 80.007812 162.832031 69.535156 212.175781 101.277344 C 209.574219 98.8125 206.839844 96.4375 203.960938 94.179688 C 153.984375 54.992188 81.703125 63.742188 42.515625 113.714844 C 3.332031 163.691406 12.078125 235.972656 62.050781 275.15625 "/><g clip-rule="nonzero" clip-path="url(#2be6f959ba)"><path style=" stroke:none;fill-rule:nonzero;fill:#289db9;fill-opacity:1;" d="M 168.984375 269.90625 C 139.347656 261.9375 114.96875 244.167969 98.394531 221.03125 C 111.460938 249.886719 136.867188 272.882812 169.84375 281.746094 C 212.925781 293.328125 256.910156 277.5625 283.375 245.082031 C 252.597656 270.445312 210.429688 281.042969 168.984375 269.90625 "/></g><g style="fill:#182b5c;fill-opacity:1;"><g transform="translate(81.456788, 209.390021)"><path style="stroke:none" d="M 0.6875 0 L 8.890625 -47.234375 L 22.453125 -47.203125 C 25.628906 -47.140625 28.488281 -46.421875 31.03125 -45.046875 C 33.570312 -43.671875 35.628906 -41.695312 37.203125 -39.125 C 38.785156 -36.550781 39.738281 -33.648438 40.0625 -30.421875 C 40.238281 -28.546875 40.21875 -26.625 40 -24.65625 L 39.765625 -22.9375 C 38.816406 -16.007812 36.097656 -10.453125 31.609375 -6.265625 C 27.117188 -2.085938 21.675781 0 15.28125 0 Z M 17.03125 -39.34375 L 11.546875 -7.8125 L 15.5 -7.78125 C 19.875 -7.78125 23.382812 -9.378906 26.03125 -12.578125 C 28.675781 -15.785156 30.195312 -20.625 30.59375 -27.09375 L 30.65625 -28.125 C 30.71875 -31.695312 30.035156 -34.429688 28.609375 -36.328125 C 27.179688 -38.234375 25.050781 -39.226562 22.21875 -39.3125 Z M 17.03125 -39.34375 "/></g></g><g style="fill:#182b5c;fill-opacity:1;"><g transform="translate(120.53562, 209.390021)"><path style="stroke:none" d="M 31.859375 -20.46875 L 13.75 -20.46875 L 11.546875 -7.8125 L 32.828125 -7.8125 L 31.46875 0 L 0.6875 0 L 8.890625 -47.234375 L 39.609375 -47.234375 L 38.21875 -39.34375 L 17.03125 -39.34375 L 15.046875 -28.09375 L 33.21875 -28.09375 Z M 31.859375 -20.46875 "/></g></g><g style="fill:#182b5c;fill-opacity:1;"><g transform="translate(153.970232, 209.390021)"><path style="stroke:none" d="M 39.1875 -15.765625 C 38.820312 -12.503906 37.707031 -9.613281 35.84375 -7.09375 C 33.988281 -4.570312 31.566406 -2.632812 28.578125 -1.28125 C 25.597656 0.0703125 22.375 0.71875 18.90625 0.65625 C 15.789062 0.582031 13.078125 -0.132812 10.765625 -1.5 C 8.453125 -2.875 6.628906 -4.863281 5.296875 -7.46875 C 3.972656 -10.082031 3.222656 -13.085938 3.046875 -16.484375 C 2.898438 -19.140625 3.175781 -22.445312 3.875 -26.40625 C 4.582031 -30.363281 5.835938 -33.878906 7.640625 -36.953125 C 9.441406 -40.023438 11.585938 -42.457031 14.078125 -44.25 C 17.578125 -46.757812 21.578125 -47.96875 26.078125 -47.875 C 30.960938 -47.789062 34.835938 -46.28125 37.703125 -43.34375 C 40.578125 -40.414062 42.15625 -36.347656 42.4375 -31.140625 L 32.953125 -31.171875 C 32.953125 -34.160156 32.359375 -36.34375 31.171875 -37.71875 C 29.984375 -39.101562 28.132812 -39.84375 25.625 -39.9375 C 22.382812 -40.039062 19.71875 -38.878906 17.625 -36.453125 C 15.539062 -34.035156 14.144531 -30.503906 13.4375 -25.859375 C 12.738281 -21.335938 12.429688 -17.953125 12.515625 -15.703125 C 12.628906 -12.847656 13.269531 -10.742188 14.4375 -9.390625 C 15.601562 -8.035156 17.234375 -7.328125 19.328125 -7.265625 C 22.234375 -7.160156 24.554688 -7.847656 26.296875 -9.328125 C 28.035156 -10.804688 29.1875 -12.929688 29.75 -15.703125 Z M 39.1875 -15.765625 "/></g></g><g style="fill:#182b5c;fill-opacity:1;"><g transform="translate(193.341007, 209.390021)"><path style="stroke:none" d="M 10.796875 0 L 1.296875 0 L 9.46875 -47.234375 L 18.984375 -47.234375 Z M 10.796875 0 "/></g></g><g style="fill:#289db9;fill-opacity:1;"><g transform="translate(207.028585, 209.391705)"><path style="stroke:none" d="M 0.6875 0 L 8.890625 -47.234375 L 23.609375 -47.203125 C 29.085938 -47.179688 33.195312 -46.066406 35.9375 -43.859375 C 38.6875 -41.648438 39.929688 -38.546875 39.671875 -34.546875 C 39.367188 -29.765625 36.613281 -26.273438 31.40625 -24.078125 C 33.28125 -23.421875 34.738281 -22.203125 35.78125 -20.421875 C 36.820312 -18.640625 37.265625 -16.535156 37.109375 -14.109375 C 36.804688 -9.648438 35.0625 -6.179688 31.875 -3.703125 C 28.6875 -1.234375 24.332031 0 18.8125 0 Z M 13.78125 -20.5625 L 11.546875 -7.8125 L 19.046875 -7.78125 C 21.378906 -7.78125 23.332031 -8.359375 24.90625 -9.515625 C 26.488281 -10.671875 27.429688 -12.234375 27.734375 -14.203125 C 28.035156 -16.148438 27.769531 -17.671875 26.9375 -18.765625 C 26.101562 -19.859375 24.703125 -20.445312 22.734375 -20.53125 Z M 14.953125 -27.4375 L 21.40625 -27.375 C 23.8125 -27.414062 25.773438 -27.976562 27.296875 -29.0625 C 28.816406 -30.144531 29.734375 -31.648438 30.046875 -33.578125 C 30.578125 -37.378906 28.570312 -39.289062 24.03125 -39.3125 L 17.03125 -39.34375 Z M 14.953125 -27.4375 "/></g></g><g style="fill:#289db9;fill-opacity:1;"><g transform="translate(245.361342, 209.391705)"><path style="stroke:none" d="M 31.859375 -20.46875 L 13.75 -20.46875 L 11.546875 -7.8125 L 32.828125 -7.8125 L 31.46875 0 L 0.6875 0 L 8.890625 -47.234375 L 39.609375 -47.234375 L 38.21875 -39.34375 L 17.03125 -39.34375 L 15.046875 -28.09375 L 33.21875 -28.09375 Z M 31.859375 -20.46875 "/></g></g><g style="fill:#289db9;fill-opacity:1;"><g transform="translate(278.795954, 209.391705)"><path style="stroke:none" d="M 11.546875 -7.8125 L 31.59375 -7.8125 L 30.234375 0 L 0.6875 0 L 8.890625 -47.234375 L 18.390625 -47.234375 Z M 11.546875 -7.8125 "/></g></g><g style="fill:#289db9;fill-opacity:1;"><g transform="translate(310.900605, 209.391705)"><path style="stroke:none" d="M 10.796875 0 L 1.296875 0 L 9.46875 -47.234375 L 18.984375 -47.234375 Z M 10.796875 0 "/></g></g><g style="fill:#289db9;fill-opacity:1;"><g transform="translate(326.883546, 209.391705)"><path style="stroke:none" d="M 19.65625 0.65625 C 16.519531 0.582031 13.753906 -0.160156 11.359375 -1.578125 C 8.972656 -2.992188 7.082031 -5.035156 5.6875 -7.703125 C 4.289062 -10.367188 3.488281 -13.4375 3.28125 -16.90625 C 3.039062 -20.445312 3.414062 -24.226562 4.40625 -28.25 C 5.40625 -32.28125 7.003906 -35.816406 9.203125 -38.859375 C 11.410156 -41.910156 14 -44.191406 16.96875 -45.703125 C 19.945312 -47.222656 23.171875 -47.945312 26.640625 -47.875 C 29.816406 -47.8125 32.59375 -47.0625 34.96875 -45.625 C 37.34375 -44.1875 39.210938 -42.117188 40.578125 -39.421875 C 41.941406 -36.734375 42.722656 -33.679688 42.921875 -30.265625 C 43.140625 -26.460938 42.726562 -22.546875 41.6875 -18.515625 C 40.644531 -14.492188 39.03125 -11.015625 36.84375 -8.078125 C 34.664062 -5.140625 32.109375 -2.929688 29.171875 -1.453125 C 26.242188 0.015625 23.070312 0.71875 19.65625 0.65625 Z M 33.125 -24.921875 L 33.375 -28 C 33.59375 -31.84375 33.078125 -34.757812 31.828125 -36.75 C 30.585938 -38.738281 28.703125 -39.78125 26.171875 -39.875 C 22.222656 -40 19.082031 -38.242188 16.75 -34.609375 C 14.425781 -30.972656 13.113281 -25.890625 12.8125 -19.359375 C 12.59375 -15.535156 13.097656 -12.585938 14.328125 -10.515625 C 15.566406 -8.453125 17.484375 -7.378906 20.078125 -7.296875 C 23.472656 -7.148438 26.285156 -8.472656 28.515625 -11.265625 C 30.742188 -14.066406 32.203125 -18.03125 32.890625 -23.15625 Z M 33.125 -24.921875 "/></g></g><g style="fill:#289db9;fill-opacity:1;"><g transform="translate(134.40666, 235.977571)"><path style="stroke:none" d="M 7.390625 0.28125 C 6.128906 0.28125 4.992188 0.046875 3.984375 -0.421875 C 2.984375 -0.890625 2.191406 -1.59375 1.609375 -2.53125 C 1.023438 -3.46875 0.734375 -4.648438 0.734375 -6.078125 C 0.734375 -7.441406 0.9375 -8.695312 1.34375 -9.84375 C 1.757812 -11 2.347656 -12.003906 3.109375 -12.859375 C 3.878906 -13.722656 4.8125 -14.394531 5.90625 -14.875 C 7 -15.351562 8.21875 -15.59375 9.5625 -15.59375 C 10.351562 -15.59375 11.144531 -15.484375 11.9375 -15.265625 C 12.726562 -15.046875 13.425781 -14.675781 14.03125 -14.15625 C 14.644531 -13.632812 15.097656 -12.929688 15.390625 -12.046875 L 12.046875 -10.921875 C 11.765625 -11.554688 11.375 -11.992188 10.875 -12.234375 C 10.382812 -12.484375 9.828125 -12.609375 9.203125 -12.609375 C 8.484375 -12.609375 7.835938 -12.4375 7.265625 -12.09375 C 6.703125 -11.75 6.222656 -11.285156 5.828125 -10.703125 C 5.429688 -10.128906 5.125 -9.476562 4.90625 -8.75 C 4.695312 -8.019531 4.59375 -7.265625 4.59375 -6.484375 C 4.59375 -5.253906 4.882812 -4.328125 5.46875 -3.703125 C 6.0625 -3.085938 6.820312 -2.769531 7.75 -2.75 C 8.332031 -2.75 8.898438 -2.867188 9.453125 -3.109375 C 10.003906 -3.359375 10.523438 -3.804688 11.015625 -4.453125 L 14.125 -3.234375 C 13.425781 -2.148438 12.515625 -1.289062 11.390625 -0.65625 C 10.273438 -0.03125 8.941406 0.28125 7.390625 0.28125 Z M 7.390625 0.28125 "/></g></g><g style="fill:#289db9;fill-opacity:1;"><g transform="translate(149.846954, 235.977571)"><path style="stroke:none" d="M -0.296875 0 L 0.296875 -2.84375 L 2.40625 -2.84375 L 4.46875 -12.484375 L 2.359375 -12.484375 L 2.953125 -15.328125 L 10.875 -15.328125 L 10.25 -12.484375 L 8.140625 -12.484375 L 6.125 -2.84375 L 8.21875 -2.84375 L 7.59375 0 Z M -0.296875 0 "/></g></g><g style="fill:#289db9;fill-opacity:1;"><g transform="translate(160.377553, 235.977571)"><path style="stroke:none" d="M 7.015625 0.28125 C 5.347656 0.28125 3.914062 -0.0625 2.71875 -0.75 C 1.53125 -1.445312 0.703125 -2.394531 0.234375 -3.59375 L 3.78125 -4.796875 C 3.90625 -4.285156 4.140625 -3.867188 4.484375 -3.546875 C 4.835938 -3.234375 5.253906 -3 5.734375 -2.84375 C 6.222656 -2.6875 6.703125 -2.609375 7.171875 -2.609375 C 7.847656 -2.609375 8.441406 -2.738281 8.953125 -3 C 9.460938 -3.257812 9.71875 -3.628906 9.71875 -4.109375 C 9.71875 -4.484375 9.566406 -4.800781 9.265625 -5.0625 C 8.972656 -5.320312 8.578125 -5.546875 8.078125 -5.734375 C 7.585938 -5.921875 7.039062 -6.101562 6.4375 -6.28125 C 5.84375 -6.46875 5.25 -6.675781 4.65625 -6.90625 C 4.070312 -7.132812 3.53125 -7.421875 3.03125 -7.765625 C 2.539062 -8.109375 2.144531 -8.53125 1.84375 -9.03125 C 1.550781 -9.539062 1.40625 -10.160156 1.40625 -10.890625 C 1.40625 -11.722656 1.582031 -12.429688 1.9375 -13.015625 C 2.300781 -13.609375 2.785156 -14.09375 3.390625 -14.46875 C 3.992188 -14.851562 4.675781 -15.132812 5.4375 -15.3125 C 6.195312 -15.5 6.992188 -15.59375 7.828125 -15.59375 C 8.585938 -15.59375 9.347656 -15.488281 10.109375 -15.28125 C 10.878906 -15.082031 11.597656 -14.738281 12.265625 -14.25 C 12.929688 -13.757812 13.476562 -13.097656 13.90625 -12.265625 L 10.34375 -11.078125 C 10.144531 -11.609375 9.769531 -12 9.21875 -12.25 C 8.664062 -12.507812 8.109375 -12.640625 7.546875 -12.640625 C 6.765625 -12.640625 6.164062 -12.507812 5.75 -12.25 C 5.34375 -12 5.140625 -11.675781 5.140625 -11.28125 C 5.140625 -10.875 5.285156 -10.539062 5.578125 -10.28125 C 5.878906 -10.03125 6.28125 -9.8125 6.78125 -9.625 C 7.28125 -9.445312 7.828125 -9.273438 8.421875 -9.109375 C 9.015625 -8.953125 9.609375 -8.769531 10.203125 -8.5625 C 10.804688 -8.351562 11.351562 -8.085938 11.84375 -7.765625 C 12.34375 -7.453125 12.738281 -7.050781 13.03125 -6.5625 C 13.332031 -6.070312 13.484375 -5.457031 13.484375 -4.71875 C 13.484375 -3.625 13.175781 -2.703125 12.5625 -1.953125 C 11.957031 -1.210938 11.160156 -0.65625 10.171875 -0.28125 C 9.179688 0.09375 8.128906 0.28125 7.015625 0.28125 Z M 7.015625 0.28125 "/></g></g><g style="fill:#289db9;fill-opacity:1;"><g transform="translate(175.106637, 235.977571)"><path style="stroke:none" d=""/></g></g><g style="fill:#289db9;fill-opacity:1;"><g transform="translate(182.448236, 235.977571)"><path style="stroke:none" d="M 0.234375 -4.21875 L 0.875 -7.171875 L 8.34375 -7.171875 L 7.703125 -4.21875 Z M 0.234375 -4.21875 "/></g></g><g style="fill:#182b5c;fill-opacity:1;"><g transform="translate(200.663444, 235.419379)"><path style="stroke:none" d="M 6.09375 0.28125 C 4.71875 0.28125 3.628906 0.0820312 2.828125 -0.3125 C 2.023438 -0.71875 1.453125 -1.265625 1.109375 -1.953125 C 0.765625 -2.640625 0.59375 -3.421875 0.59375 -4.296875 C 0.59375 -4.671875 0.617188 -5.054688 0.671875 -5.453125 C 0.722656 -5.859375 0.796875 -6.273438 0.890625 -6.703125 L 2.75 -15.328125 L 6.453125 -15.328125 L 4.546875 -6.40625 C 4.484375 -6.082031 4.425781 -5.773438 4.375 -5.484375 C 4.332031 -5.203125 4.3125 -4.929688 4.3125 -4.671875 C 4.3125 -4.066406 4.484375 -3.582031 4.828125 -3.21875 C 5.171875 -2.863281 5.8125 -2.6875 6.75 -2.6875 C 7.582031 -2.6875 8.238281 -2.835938 8.71875 -3.140625 C 9.207031 -3.441406 9.582031 -3.875 9.84375 -4.4375 C 10.113281 -5 10.328125 -5.65625 10.484375 -6.40625 L 12.390625 -15.328125 L 16.078125 -15.328125 L 14.25 -6.703125 C 13.9375 -5.265625 13.546875 -4.085938 13.078125 -3.171875 C 12.617188 -2.265625 12.0625 -1.554688 11.40625 -1.046875 C 10.757812 -0.546875 9.992188 -0.195312 9.109375 0 C 8.234375 0.1875 7.226562 0.28125 6.09375 0.28125 Z M 6.09375 0.28125 "/></g></g><g style="fill:#182b5c;fill-opacity:1;"><g transform="translate(216.241403, 235.419379)"><path style="stroke:none" d="M -0.53125 0 L 2.734375 -15.328125 L 7.296875 -15.328125 L 10.96875 -4.203125 L 13.34375 -15.328125 L 16.90625 -15.328125 L 13.640625 0 L 9.078125 0 L 5.40625 -11.125 L 3.046875 0 Z M -0.53125 0 "/></g></g><g style="fill:#182b5c;fill-opacity:1;"><g transform="translate(232.645281, 235.419379)"><path style="stroke:none" d="M -0.53125 0 L 2.734375 -15.328125 L 6.40625 -15.328125 L 3.859375 -3.1875 L 11.1875 -3.1875 L 10.5 0 Z M -0.53125 0 "/></g></g></g></svg>